# Export of WordSpell
# from Aaro4130 OBJ Exporter v2.0
g LetterBlock
v 1.160684 2.748954 0.1027534
v 2.060684 2.748954 0.1027534
v 1.160684 3.648954 0.1027534
v 2.060684 3.648954 0.1027534
v 1.160684 3.648954 0.002753448
v 2.060684 3.648954 0.002753448
v 1.160684 2.748954 0.002753448
v 2.060684 2.748954 0.002753448
v 1.160684 3.648954 0.1027534
v 2.060684 3.648954 0.1027534
v 1.160684 3.648954 0.002753448
v 2.060684 3.648954 0.002753448
v 1.160684 2.748954 0.002753448
v 1.160684 2.748954 0.1027534
v 2.060684 2.748954 0.1027534
v 2.060684 2.748954 0.002753448
v 2.060684 2.748954 0.1027534
v 2.060684 3.648954 0.1027534
v 2.060684 3.648954 0.002753448
v 2.060684 2.748954 0.002753448
v 1.160684 2.748954 0.002753448
v 1.160684 3.648954 0.002753448
v 1.160684 3.648954 0.1027534
v 1.160684 2.748954 0.1027534
vn 0 0 0.07832605
vn 0 0 0.07832605
vn 0 0 0.07832605
vn 0 0 0.07832605
vn 0 0.7049344 0
vn 0 0.7049344 0
vn 0 0 -0.07832605
vn 0 0 -0.07832605
vn 0 0.7049344 0
vn 0 0.7049344 0
vn 0 0 -0.07832605
vn 0 0 -0.07832605
vn 0 -0.7049344 0
vn 0 -0.7049344 0
vn 0 -0.7049344 0
vn 0 -0.7049344 0
vn 0.7049344 0 0
vn 0.7049344 0 0
vn 0.7049344 0 0
vn 0.7049344 0 0
vn -0.7049344 0 0
vn -0.7049344 0 0
vn -0.7049344 0 0
vn -0.7049344 0 0
vt 0 0
vt 1 0
vt 0 1
vt 1 1
vt 0 1
vt 1 1
vt 0 1
vt 1 1
vt 0 0
vt 1 0
vt 0 0
vt 1 0
vt 0 0
vt 0 1
vt 1 1
vt 1 0
vt 0 0
vt 0 1
vt 1 1
vt 1 0
vt 0 0
vt 0 1
vt 1 1
vt 1 0
usemtl Burnt
f 4/4/4 3/3/3 1/1/1
f 2/2/2 4/4/4 1/1/1
f 6/6/6 5/5/5 9/9/9
f 10/10/10 6/6/6 9/9/9
f 8/8/8 7/7/7 11/11/11
f 12/12/12 8/8/8 11/11/11
f 15/15/15 14/14/14 13/13/13
f 16/16/16 15/15/15 13/13/13
f 19/19/19 18/18/18 17/17/17
f 20/20/20 19/19/19 17/17/17
f 23/23/23 22/22/22 21/21/21
f 24/24/24 23/23/23 21/21/21
